<svg width="173" height="62" viewBox="0 0 173 62" fill="none" xmlns="http://www.w3.org/2000/svg">
<path d="M7.924 8.382H2.464L1.288 11H0.21L4.69 1.2H5.712L10.192 11H9.1L7.924 8.382ZM7.546 7.542L5.194 2.278L2.842 7.542H7.546ZM15.2653 3.818C15.9466 3.818 16.5533 3.972 17.0853 4.28C17.6266 4.57867 18.0466 5.00333 18.3453 5.554C18.6439 6.09533 18.7933 6.716 18.7933 7.416C18.7933 8.13467 18.6346 8.774 18.3173 9.334C18.0093 9.88467 17.5753 10.314 17.0153 10.622C16.4553 10.93 15.8113 11.084 15.0833 11.084C13.8606 11.084 12.9133 10.6547 12.2413 9.796C11.5693 8.93733 11.2333 7.752 11.2333 6.24C11.2333 4.66267 11.5319 3.454 12.1292 2.614C12.7359 1.774 13.6786 1.20467 14.9573 0.906L18.2613 0.149999L18.4293 1.06L15.3213 1.774C14.2666 2.00733 13.4919 2.42267 12.9973 3.02C12.5026 3.608 12.2319 4.48067 12.1853 5.638C12.4839 5.06867 12.8993 4.62533 13.4313 4.308C13.9633 3.98133 14.5746 3.818 15.2653 3.818ZM15.1113 10.258C15.6246 10.258 16.0819 10.1413 16.4833 9.908C16.8939 9.66533 17.2113 9.32933 17.4353 8.9C17.6686 8.47067 17.7853 7.98533 17.7853 7.444C17.7853 6.90267 17.6733 6.42667 17.4493 6.016C17.2253 5.60533 16.9079 5.288 16.4973 5.064C16.0959 4.83067 15.6339 4.714 15.1113 4.714C14.5886 4.714 14.1219 4.83067 13.7113 5.064C13.3099 5.288 12.9926 5.60533 12.7593 6.016C12.5353 6.42667 12.4233 6.90267 12.4233 7.444C12.4233 7.98533 12.5353 8.47067 12.7593 8.9C12.9926 9.32933 13.3146 9.66533 13.7253 9.908C14.1359 10.1413 14.5979 10.258 15.1113 10.258ZM23.9618 11.07C23.2524 11.07 22.6131 10.9113 22.0438 10.594C21.4744 10.2673 21.0264 9.81933 20.6998 9.25C20.3731 8.68067 20.2098 8.03667 20.2098 7.318C20.2098 6.59933 20.3731 5.95533 20.6998 5.386C21.0264 4.81667 21.4744 4.37333 22.0438 4.056C22.6131 3.73867 23.2524 3.58 23.9618 3.58C24.6711 3.58 25.3104 3.73867 25.8798 4.056C26.4491 4.37333 26.8924 4.81667 27.2098 5.386C27.5364 5.95533 27.6998 6.59933 27.6998 7.318C27.6998 8.03667 27.5364 8.68067 27.2098 9.25C26.8924 9.81933 26.4491 10.2673 25.8798 10.594C25.3104 10.9113 24.6711 11.07 23.9618 11.07ZM23.9618 10.188C24.4844 10.188 24.9511 10.0713 25.3618 9.838C25.7818 9.59533 26.1084 9.25467 26.3418 8.816C26.5751 8.37733 26.6918 7.878 26.6918 7.318C26.6918 6.758 26.5751 6.25867 26.3418 5.82C26.1084 5.38133 25.7818 5.04533 25.3618 4.812C24.9511 4.56933 24.4844 4.448 23.9618 4.448C23.4391 4.448 22.9678 4.56933 22.5478 4.812C22.1371 5.04533 21.8104 5.38133 21.5678 5.82C21.3344 6.25867 21.2178 6.758 21.2178 7.318C21.2178 7.878 21.3344 8.37733 21.5678 8.816C21.8104 9.25467 22.1371 9.59533 22.5478 9.838C22.9678 10.0713 23.4391 10.188 23.9618 10.188ZM29.8242 3.636H30.8182V6.898H35.4522V3.636H36.4462V11H35.4522V7.752H30.8182V11H29.8242V3.636ZM45.7114 7.626H39.5514C39.6074 8.39133 39.9014 9.012 40.4334 9.488C40.9654 9.95467 41.6374 10.188 42.4494 10.188C42.9068 10.188 43.3268 10.1087 43.7094 9.95C44.0921 9.782 44.4234 9.53933 44.7034 9.222L45.2634 9.866C44.9368 10.258 44.5261 10.5567 44.0314 10.762C43.5461 10.9673 43.0094 11.07 42.4214 11.07C41.6654 11.07 40.9934 10.9113 40.4054 10.594C39.8268 10.2673 39.3741 9.81933 39.0474 9.25C38.7208 8.68067 38.5574 8.03667 38.5574 7.318C38.5574 6.59933 38.7114 5.95533 39.0194 5.386C39.3368 4.81667 39.7661 4.37333 40.3074 4.056C40.8581 3.73867 41.4741 3.58 42.1554 3.58C42.8368 3.58 43.4481 3.73867 43.9894 4.056C44.5308 4.37333 44.9554 4.81667 45.2634 5.386C45.5714 5.946 45.7254 6.59 45.7254 7.318L45.7114 7.626ZM42.1554 4.434C41.4461 4.434 40.8488 4.66267 40.3634 5.12C39.8874 5.568 39.6168 6.156 39.5514 6.884H44.7734C44.7081 6.156 44.4328 5.568 43.9474 5.12C43.4714 4.66267 42.8741 4.434 42.1554 4.434ZM56.1577 3.636V11H55.2477V5.176L52.2657 10.104H51.8177L48.8357 5.162V11H47.9257V3.636H48.9337L52.0557 8.942L55.2337 3.636H56.1577ZM65.4263 7.626H59.2663C59.3223 8.39133 59.6163 9.012 60.1483 9.488C60.6803 9.95467 61.3523 10.188 62.1643 10.188C62.6216 10.188 63.0416 10.1087 63.4243 9.95C63.8069 9.782 64.1383 9.53933 64.4183 9.222L64.9783 9.866C64.6516 10.258 64.2409 10.5567 63.7463 10.762C63.2609 10.9673 62.7243 11.07 62.1363 11.07C61.3803 11.07 60.7083 10.9113 60.1203 10.594C59.5416 10.2673 59.0889 9.81933 58.7623 9.25C58.4356 8.68067 58.2723 8.03667 58.2723 7.318C58.2723 6.59933 58.4263 5.95533 58.7343 5.386C59.0516 4.81667 59.4809 4.37333 60.0223 4.056C60.5729 3.73867 61.1889 3.58 61.8703 3.58C62.5516 3.58 63.1629 3.73867 63.7043 4.056C64.2456 4.37333 64.6703 4.81667 64.9783 5.386C65.2863 5.946 65.4403 6.59 65.4403 7.318L65.4263 7.626ZM61.8703 4.434C61.1609 4.434 60.5636 4.66267 60.0783 5.12C59.6023 5.568 59.3316 6.156 59.2663 6.884H64.4883C64.4229 6.156 64.1476 5.568 63.6623 5.12C63.1863 4.66267 62.5889 4.434 61.8703 4.434ZM67.6406 3.636H68.6346V6.898H73.2686V3.636H74.2626V11H73.2686V7.752H68.6346V11H67.6406V3.636ZM82.2678 4.518H79.4818V11H78.4878V4.518H75.7018V3.636H82.2678V4.518ZM86.799 6.24C87.723 6.24933 88.4277 6.45467 88.913 6.856C89.3983 7.25733 89.641 7.836 89.641 8.592C89.641 9.376 89.3797 9.978 88.857 10.398C88.3343 10.818 87.5877 11.0233 86.617 11.014L83.705 11V3.636H84.699V6.212L86.799 6.24ZM90.873 3.636H91.867V11H90.873V3.636ZM86.561 10.258C87.2423 10.2673 87.7557 10.132 88.101 9.852C88.4557 9.56267 88.633 9.14267 88.633 8.592C88.633 8.05067 88.4603 7.64933 88.115 7.388C87.7697 7.12667 87.2517 6.99133 86.561 6.982L84.699 6.954V10.23L86.561 10.258ZM7.924 32.382H2.464L1.288 35H0.21L4.69 25.2H5.712L10.192 35H9.1L7.924 32.382ZM7.546 31.542L5.194 26.278L2.842 31.542H7.546ZM15.2653 27.818C15.9466 27.818 16.5533 27.972 17.0853 28.28C17.6266 28.5787 18.0466 29.0033 18.3453 29.554C18.6439 30.0953 18.7933 30.716 18.7933 31.416C18.7933 32.1347 18.6346 32.774 18.3173 33.334C18.0093 33.8847 17.5753 34.314 17.0153 34.622C16.4553 34.93 15.8113 35.084 15.0833 35.084C13.8606 35.084 12.9133 34.6547 12.2413 33.796C11.5693 32.9373 11.2333 31.752 11.2333 30.24C11.2333 28.6627 11.5319 27.454 12.1292 26.614C12.7359 25.774 13.6786 25.2047 14.9573 24.906L18.2613 24.15L18.4293 25.06L15.3213 25.774C14.2666 26.0073 13.4919 26.4227 12.9973 27.02C12.5026 27.608 12.2319 28.4807 12.1853 29.638C12.4839 29.0687 12.8993 28.6253 13.4313 28.308C13.9633 27.9813 14.5746 27.818 15.2653 27.818ZM15.1113 34.258C15.6246 34.258 16.0819 34.1413 16.4833 33.908C16.8939 33.6653 17.2113 33.3293 17.4353 32.9C17.6686 32.4707 17.7853 31.9853 17.7853 31.444C17.7853 30.9027 17.6733 30.4267 17.4493 30.016C17.2253 29.6053 16.9079 29.288 16.4973 29.064C16.0959 28.8307 15.6339 28.714 15.1113 28.714C14.5886 28.714 14.1219 28.8307 13.7113 29.064C13.3099 29.288 12.9926 29.6053 12.7593 30.016C12.5353 30.4267 12.4233 30.9027 12.4233 31.444C12.4233 31.9853 12.5353 32.4707 12.7593 32.9C12.9926 33.3293 13.3146 33.6653 13.7253 33.908C14.1359 34.1413 14.5979 34.258 15.1113 34.258ZM23.9618 35.07C23.2524 35.07 22.6131 34.9113 22.0438 34.594C21.4744 34.2673 21.0264 33.8193 20.6998 33.25C20.3731 32.6807 20.2098 32.0367 20.2098 31.318C20.2098 30.5993 20.3731 29.9553 20.6998 29.386C21.0264 28.8167 21.4744 28.3733 22.0438 28.056C22.6131 27.7387 23.2524 27.58 23.9618 27.58C24.6711 27.58 25.3104 27.7387 25.8798 28.056C26.4491 28.3733 26.8924 28.8167 27.2098 29.386C27.5364 29.9553 27.6998 30.5993 27.6998 31.318C27.6998 32.0367 27.5364 32.6807 27.2098 33.25C26.8924 33.8193 26.4491 34.2673 25.8798 34.594C25.3104 34.9113 24.6711 35.07 23.9618 35.07ZM23.9618 34.188C24.4844 34.188 24.9511 34.0713 25.3618 33.838C25.7818 33.5953 26.1084 33.2547 26.3418 32.816C26.5751 32.3773 26.6918 31.878 26.6918 31.318C26.6918 30.758 26.5751 30.2587 26.3418 29.82C26.1084 29.3813 25.7818 29.0453 25.3618 28.812C24.9511 28.5693 24.4844 28.448 23.9618 28.448C23.4391 28.448 22.9678 28.5693 22.5478 28.812C22.1371 29.0453 21.8104 29.3813 21.5678 29.82C21.3344 30.2587 21.2178 30.758 21.2178 31.318C21.2178 31.878 21.3344 32.3773 21.5678 32.816C21.8104 33.2547 22.1371 33.5953 22.5478 33.838C22.9678 34.0713 23.4391 34.188 23.9618 34.188ZM29.8242 27.636H30.8182V30.898H35.4522V27.636H36.4462V35H35.4522V31.752H30.8182V35H29.8242V27.636ZM45.7114 31.626H39.5514C39.6074 32.3913 39.9014 33.012 40.4334 33.488C40.9654 33.9547 41.6374 34.188 42.4494 34.188C42.9068 34.188 43.3268 34.1087 43.7094 33.95C44.0921 33.782 44.4234 33.5393 44.7034 33.222L45.2634 33.866C44.9368 34.258 44.5261 34.5567 44.0314 34.762C43.5461 34.9673 43.0094 35.07 42.4214 35.07C41.6654 35.07 40.9934 34.9113 40.4054 34.594C39.8268 34.2673 39.3741 33.8193 39.0474 33.25C38.7208 32.6807 38.5574 32.0367 38.5574 31.318C38.5574 30.5993 38.7114 29.9553 39.0194 29.386C39.3368 28.8167 39.7661 28.3733 40.3074 28.056C40.8581 27.7387 41.4741 27.58 42.1554 27.58C42.8368 27.58 43.4481 27.7387 43.9894 28.056C44.5308 28.3733 44.9554 28.8167 45.2634 29.386C45.5714 29.946 45.7254 30.59 45.7254 31.318L45.7114 31.626ZM42.1554 28.434C41.4461 28.434 40.8488 28.6627 40.3634 29.12C39.8874 29.568 39.6168 30.156 39.5514 30.884H44.7734C44.7081 30.156 44.4328 29.568 43.9474 29.12C43.4714 28.6627 42.8741 28.434 42.1554 28.434ZM56.1577 27.636V35H55.2477V29.176L52.2657 34.104H51.8177L48.8357 29.162V35H47.9257V27.636H48.9337L52.0557 32.942L55.2337 27.636H56.1577ZM65.4263 31.626H59.2663C59.3223 32.3913 59.6163 33.012 60.1483 33.488C60.6803 33.9547 61.3523 34.188 62.1643 34.188C62.6216 34.188 63.0416 34.1087 63.4243 33.95C63.8069 33.782 64.1383 33.5393 64.4183 33.222L64.9783 33.866C64.6516 34.258 64.2409 34.5567 63.7463 34.762C63.2609 34.9673 62.7243 35.07 62.1363 35.07C61.3803 35.07 60.7083 34.9113 60.1203 34.594C59.5416 34.2673 59.0889 33.8193 58.7623 33.25C58.4356 32.6807 58.2723 32.0367 58.2723 31.318C58.2723 30.5993 58.4263 29.9553 58.7343 29.386C59.0516 28.8167 59.4809 28.3733 60.0223 28.056C60.5729 27.7387 61.1889 27.58 61.8703 27.58C62.5516 27.58 63.1629 27.7387 63.7043 28.056C64.2456 28.3733 64.6703 28.8167 64.9783 29.386C65.2863 29.946 65.4403 30.59 65.4403 31.318L65.4263 31.626ZM61.8703 28.434C61.1609 28.434 60.5636 28.6627 60.0783 29.12C59.6023 29.568 59.3316 30.156 59.2663 30.884H64.4883C64.4229 30.156 64.1476 29.568 63.6623 29.12C63.1863 28.6627 62.5889 28.434 61.8703 28.434ZM67.6406 27.636H68.6346V30.898H73.2686V27.636H74.2626V35H73.2686V31.752H68.6346V35H67.6406V27.636ZM82.2678 28.518H79.4818V35H78.4878V28.518H75.7018V27.636H82.2678V28.518ZM93.9771 27.636V35H92.9831V28.518H88.3631V35H87.3691V27.636H93.9771ZM99.8407 35.07C99.1313 35.07 98.492 34.9113 97.9227 34.594C97.3533 34.2673 96.9053 33.8193 96.5787 33.25C96.252 32.6807 96.0887 32.0367 96.0887 31.318C96.0887 30.5993 96.252 29.9553 96.5787 29.386C96.9053 28.8167 97.3533 28.3733 97.9227 28.056C98.492 27.7387 99.1313 27.58 99.8407 27.58C100.55 27.58 101.189 27.7387 101.759 28.056C102.328 28.3733 102.771 28.8167 103.089 29.386C103.415 29.9553 103.579 30.5993 103.579 31.318C103.579 32.0367 103.415 32.6807 103.089 33.25C102.771 33.8193 102.328 34.2673 101.759 34.594C101.189 34.9113 100.55 35.07 99.8407 35.07ZM99.8407 34.188C100.363 34.188 100.83 34.0713 101.241 33.838C101.661 33.5953 101.987 33.2547 102.221 32.816C102.454 32.3773 102.571 31.878 102.571 31.318C102.571 30.758 102.454 30.2587 102.221 29.82C101.987 29.3813 101.661 29.0453 101.241 28.812C100.83 28.5693 100.363 28.448 99.8407 28.448C99.318 28.448 98.8467 28.5693 98.4267 28.812C98.016 29.0453 97.6893 29.3813 97.4467 29.82C97.2133 30.2587 97.0967 30.758 97.0967 31.318C97.0967 31.878 97.2133 32.3773 97.4467 32.816C97.6893 33.2547 98.016 33.5953 98.4267 33.838C98.8467 34.0713 99.318 34.188 99.8407 34.188ZM114.057 31.192C115.056 31.4253 115.555 32.0273 115.555 32.998C115.555 33.642 115.317 34.1367 114.841 34.482C114.365 34.8273 113.656 35 112.713 35H109.367V27.636H112.615C113.455 27.636 114.113 27.7993 114.589 28.126C115.065 28.4527 115.303 28.9193 115.303 29.526C115.303 29.9273 115.191 30.2727 114.967 30.562C114.752 30.842 114.449 31.052 114.057 31.192ZM110.333 30.912H112.545C113.114 30.912 113.548 30.8047 113.847 30.59C114.155 30.3753 114.309 30.0627 114.309 29.652C114.309 29.2413 114.155 28.9333 113.847 28.728C113.548 28.5227 113.114 28.42 112.545 28.42H110.333V30.912ZM112.671 34.216C113.306 34.216 113.782 34.1133 114.099 33.908C114.416 33.7027 114.575 33.3807 114.575 32.942C114.575 32.5033 114.43 32.1813 114.141 31.976C113.852 31.7613 113.394 31.654 112.769 31.654H110.333V34.216H112.671ZM121.679 27.58C122.369 27.58 122.995 27.7387 123.555 28.056C124.115 28.364 124.553 28.8027 124.871 29.372C125.188 29.9413 125.347 30.59 125.347 31.318C125.347 32.0553 125.188 32.7087 124.871 33.278C124.553 33.8473 124.115 34.2907 123.555 34.608C123.004 34.916 122.379 35.07 121.679 35.07C121.081 35.07 120.54 34.9487 120.055 34.706C119.579 34.454 119.187 34.09 118.879 33.614V37.716H117.885V27.636H118.837V29.092C119.135 28.6067 119.527 28.2333 120.013 27.972C120.507 27.7107 121.063 27.58 121.679 27.58ZM121.609 34.188C122.122 34.188 122.589 34.0713 123.009 33.838C123.429 33.5953 123.755 33.2547 123.989 32.816C124.231 32.3773 124.353 31.878 124.353 31.318C124.353 30.758 124.231 30.2633 123.989 29.834C123.755 29.3953 123.429 29.0547 123.009 28.812C122.589 28.5693 122.122 28.448 121.609 28.448C121.086 28.448 120.615 28.5693 120.195 28.812C119.784 29.0547 119.457 29.3953 119.215 29.834C118.981 30.2633 118.865 30.758 118.865 31.318C118.865 31.878 118.981 32.3773 119.215 32.816C119.457 33.2547 119.784 33.5953 120.195 33.838C120.615 34.0713 121.086 34.188 121.609 34.188ZM133.922 31.626H127.762C127.818 32.3913 128.112 33.012 128.644 33.488C129.176 33.9547 129.848 34.188 130.66 34.188C131.118 34.188 131.538 34.1087 131.92 33.95C132.303 33.782 132.634 33.5393 132.914 33.222L133.474 33.866C133.148 34.258 132.737 34.5567 132.242 34.762C131.757 34.9673 131.22 35.07 130.632 35.07C129.876 35.07 129.204 34.9113 128.616 34.594C128.038 34.2673 127.585 33.8193 127.258 33.25C126.932 32.6807 126.768 32.0367 126.768 31.318C126.768 30.5993 126.922 29.9553 127.23 29.386C127.548 28.8167 127.977 28.3733 128.518 28.056C129.069 27.7387 129.685 27.58 130.366 27.58C131.048 27.58 131.659 27.7387 132.2 28.056C132.742 28.3733 133.166 28.8167 133.474 29.386C133.782 29.946 133.936 30.59 133.936 31.318L133.922 31.626ZM130.366 28.434C129.657 28.434 129.06 28.6627 128.574 29.12C128.098 29.568 127.828 30.156 127.762 30.884H132.984C132.919 30.156 132.644 29.568 132.158 29.12C131.682 28.6627 131.085 28.434 130.366 28.434ZM144.369 27.636V35H143.459V29.176L140.477 34.104H140.029L137.047 29.162V35H136.137V27.636H137.145L140.267 32.942L143.445 27.636H144.369ZM153.637 31.626H147.477C147.533 32.3913 147.827 33.012 148.359 33.488C148.891 33.9547 149.563 34.188 150.375 34.188C150.833 34.188 151.253 34.1087 151.635 33.95C152.018 33.782 152.349 33.5393 152.629 33.222L153.189 33.866C152.863 34.258 152.452 34.5567 151.957 34.762C151.472 34.9673 150.935 35.07 150.347 35.07C149.591 35.07 148.919 34.9113 148.331 34.594C147.753 34.2673 147.3 33.8193 146.973 33.25C146.647 32.6807 146.483 32.0367 146.483 31.318C146.483 30.5993 146.637 29.9553 146.945 29.386C147.263 28.8167 147.692 28.3733 148.233 28.056C148.784 27.7387 149.4 27.58 150.081 27.58C150.763 27.58 151.374 27.7387 151.915 28.056C152.457 28.3733 152.881 28.8167 153.189 29.386C153.497 29.946 153.651 30.59 153.651 31.318L153.637 31.626ZM150.081 28.434C149.372 28.434 148.775 28.6627 148.289 29.12C147.813 29.568 147.543 30.156 147.477 30.884H152.699C152.634 30.156 152.359 29.568 151.873 29.12C151.397 28.6627 150.8 28.434 150.081 28.434ZM155.852 27.636H156.846V30.898H161.48V27.636H162.474V35H161.48V31.752H156.846V35H155.852V27.636ZM165.299 27.636H166.293V33.488L171.207 27.636H172.089V35H171.095V29.148L166.195 35H165.299V27.636ZM5.32 49.2C6.57067 49.2 7.55067 49.4987 8.26 50.096C8.96933 50.6933 9.324 51.5147 9.324 52.56C9.324 53.6053 8.96933 54.4267 8.26 55.024C7.55067 55.612 6.57067 55.906 5.32 55.906H2.688V59H1.652V49.2H5.32ZM5.292 54.996C6.26267 54.996 7.00467 54.786 7.518 54.366C8.03133 53.9367 8.288 53.3347 8.288 52.56C8.288 51.7667 8.03133 51.16 7.518 50.74C7.00467 50.3107 6.26267 50.096 5.292 50.096H2.688V54.996H5.292ZM13.6824 51.58C14.6437 51.58 15.381 51.8227 15.8944 52.308C16.4077 52.784 16.6644 53.4933 16.6644 54.436V59H15.7124V57.852C15.4884 58.2347 15.157 58.5333 14.7184 58.748C14.289 58.9627 13.7757 59.07 13.1784 59.07C12.357 59.07 11.7037 58.874 11.2184 58.482C10.733 58.09 10.4904 57.572 10.4904 56.928C10.4904 56.3027 10.7144 55.7987 11.1624 55.416C11.6197 55.0333 12.343 54.842 13.3324 54.842H15.6704V54.394C15.6704 53.7593 15.493 53.2787 15.1384 52.952C14.7837 52.616 14.2657 52.448 13.5844 52.448C13.1177 52.448 12.6697 52.5273 12.2404 52.686C11.811 52.8353 11.4424 53.0453 11.1344 53.316L10.6864 52.574C11.0597 52.2567 11.5077 52.014 12.0304 51.846C12.553 51.6687 13.1037 51.58 13.6824 51.58ZM13.3324 58.286C13.8924 58.286 14.373 58.16 14.7744 57.908C15.1757 57.6467 15.4744 57.2733 15.6704 56.788V55.584H13.3604C12.1004 55.584 11.4704 56.0227 11.4704 56.9C11.4704 57.3293 11.6337 57.67 11.9604 57.922C12.287 58.1647 12.7444 58.286 13.3324 58.286ZM22.7441 55.164C23.2668 55.2853 23.6681 55.4953 23.9481 55.794C24.2374 56.0927 24.3821 56.4567 24.3821 56.886C24.3821 57.3153 24.2328 57.698 23.9341 58.034C23.6448 58.37 23.2481 58.6313 22.7441 58.818C22.2401 58.9953 21.6848 59.084 21.0781 59.084C20.5461 59.084 20.0234 59.0093 19.5101 58.86C18.9968 58.7013 18.5488 58.4727 18.1661 58.174L18.5021 57.432C18.8381 57.684 19.2301 57.88 19.6781 58.02C20.1261 58.16 20.5788 58.23 21.0361 58.23C21.7174 58.23 22.2728 58.104 22.7021 57.852C23.1408 57.5907 23.3601 57.2407 23.3601 56.802C23.3601 56.41 23.1828 56.1067 22.8281 55.892C22.4734 55.668 21.9881 55.556 21.3721 55.556H20.1121V54.828H21.3161C21.8668 54.828 22.3101 54.7253 22.6461 54.52C22.9821 54.3053 23.1501 54.0207 23.1501 53.666C23.1501 53.274 22.9588 52.966 22.5761 52.742C22.2028 52.518 21.7128 52.406 21.1061 52.406C20.3128 52.406 19.5288 52.6067 18.7541 53.008L18.4741 52.238C19.3514 51.7807 20.2614 51.552 21.2041 51.552C21.7641 51.552 22.2681 51.636 22.7161 51.804C23.1734 51.9627 23.5281 52.1913 23.7801 52.49C24.0414 52.7887 24.1721 53.134 24.1721 53.526C24.1721 53.8993 24.0414 54.2307 23.7801 54.52C23.5281 54.8093 23.1828 55.024 22.7441 55.164ZM29.6766 59.07C28.9673 59.07 28.3279 58.9113 27.7586 58.594C27.1893 58.2673 26.7413 57.8193 26.4146 57.25C26.0879 56.6807 25.9246 56.0367 25.9246 55.318C25.9246 54.5993 26.0879 53.9553 26.4146 53.386C26.7413 52.8167 27.1893 52.3733 27.7586 52.056C28.3279 51.7387 28.9673 51.58 29.6766 51.58C30.3859 51.58 31.0253 51.7387 31.5946 52.056C32.1639 52.3733 32.6073 52.8167 32.9246 53.386C33.2513 53.9553 33.4146 54.5993 33.4146 55.318C33.4146 56.0367 33.2513 56.6807 32.9246 57.25C32.6073 57.8193 32.1639 58.2673 31.5946 58.594C31.0253 58.9113 30.3859 59.07 29.6766 59.07ZM29.6766 58.188C30.1993 58.188 30.6659 58.0713 31.0766 57.838C31.4966 57.5953 31.8233 57.2547 32.0566 56.816C32.2899 56.3773 32.4066 55.878 32.4066 55.318C32.4066 54.758 32.2899 54.2587 32.0566 53.82C31.8233 53.3813 31.4966 53.0453 31.0766 52.812C30.6659 52.5693 30.1993 52.448 29.6766 52.448C29.1539 52.448 28.6826 52.5693 28.2626 52.812C27.8519 53.0453 27.5253 53.3813 27.2826 53.82C27.0493 54.2587 26.9326 54.758 26.9326 55.318C26.9326 55.878 27.0493 56.3773 27.2826 56.816C27.5253 57.2547 27.8519 57.5953 28.2626 57.838C28.6826 58.0713 29.1539 58.188 29.6766 58.188ZM40.229 55.192C41.2277 55.4253 41.727 56.0273 41.727 56.998C41.727 57.642 41.489 58.1367 41.013 58.482C40.537 58.8273 39.8277 59 38.885 59H35.539V51.636H38.787C39.627 51.636 40.285 51.7993 40.761 52.126C41.237 52.4527 41.475 52.9193 41.475 53.526C41.475 53.9273 41.363 54.2727 41.139 54.562C40.9243 54.842 40.621 55.052 40.229 55.192ZM36.505 54.912H38.717C39.2863 54.912 39.7203 54.8047 40.019 54.59C40.327 54.3753 40.481 54.0627 40.481 53.652C40.481 53.2413 40.327 52.9333 40.019 52.728C39.7203 52.5227 39.2863 52.42 38.717 52.42H36.505V54.912ZM38.843 58.216C39.4777 58.216 39.9537 58.1133 40.271 57.908C40.5883 57.7027 40.747 57.3807 40.747 56.942C40.747 56.5033 40.6023 56.1813 40.313 55.976C40.0237 55.7613 39.5663 55.654 38.941 55.654H36.505V58.216H38.843ZM47.1506 54.24C48.0746 54.2493 48.7792 54.4547 49.2646 54.856C49.7499 55.2573 49.9926 55.836 49.9926 56.592C49.9926 57.376 49.7312 57.978 49.2086 58.398C48.6859 58.818 47.9392 59.0233 46.9686 59.014L44.0566 59V51.636H45.0506V54.212L47.1506 54.24ZM51.2246 51.636H52.2186V59H51.2246V51.636ZM46.9126 58.258C47.5939 58.2673 48.1072 58.132 48.4526 57.852C48.8072 57.5627 48.9846 57.1427 48.9846 56.592C48.9846 56.0507 48.8119 55.6493 48.4666 55.388C48.1212 55.1267 47.6032 54.9913 46.9126 54.982L45.0506 54.954V58.23L46.9126 58.258ZM61.4888 55.626H55.3288C55.3848 56.3913 55.6788 57.012 56.2108 57.488C56.7428 57.9547 57.4148 58.188 58.2268 58.188C58.6841 58.188 59.1041 58.1087 59.4868 57.95C59.8694 57.782 60.2008 57.5393 60.4808 57.222L61.0408 57.866C60.7141 58.258 60.3034 58.5567 59.8088 58.762C59.3234 58.9673 58.7868 59.07 58.1988 59.07C57.4428 59.07 56.7708 58.9113 56.1828 58.594C55.6041 58.2673 55.1514 57.8193 54.8248 57.25C54.4981 56.6807 54.3348 56.0367 54.3348 55.318C54.3348 54.5993 54.4888 53.9553 54.7968 53.386C55.1141 52.8167 55.5434 52.3733 56.0848 52.056C56.6354 51.7387 57.2514 51.58 57.9328 51.58C58.6141 51.58 59.2254 51.7387 59.7668 52.056C60.3081 52.3733 60.7328 52.8167 61.0408 53.386C61.3488 53.946 61.5028 54.59 61.5028 55.318L61.4888 55.626ZM57.9328 52.434C57.2234 52.434 56.6261 52.6627 56.1408 53.12C55.6648 53.568 55.3941 54.156 55.3288 54.884H60.5508C60.4854 54.156 60.2101 53.568 59.7248 53.12C59.2488 52.6627 58.6514 52.434 57.9328 52.434ZM72.5471 52.518H69.7611V59H68.7671V52.518H65.9811V51.636H72.5471V52.518ZM77.7783 51.58C78.469 51.58 79.0943 51.7387 79.6543 52.056C80.2143 52.364 80.653 52.8027 80.9703 53.372C81.2876 53.9413 81.4463 54.59 81.4463 55.318C81.4463 56.0553 81.2876 56.7087 80.9703 57.278C80.653 57.8473 80.2143 58.2907 79.6543 58.608C79.1036 58.916 78.4783 59.07 77.7783 59.07C77.181 59.07 76.6396 58.9487 76.1543 58.706C75.6783 58.454 75.2863 58.09 74.9783 57.614V61.716H73.9843V51.636H74.9363V53.092C75.235 52.6067 75.627 52.2333 76.1123 51.972C76.607 51.7107 77.1623 51.58 77.7783 51.58ZM77.7083 58.188C78.2216 58.188 78.6883 58.0713 79.1083 57.838C79.5283 57.5953 79.855 57.2547 80.0883 56.816C80.331 56.3773 80.4523 55.878 80.4523 55.318C80.4523 54.758 80.331 54.2633 80.0883 53.834C79.855 53.3953 79.5283 53.0547 79.1083 52.812C78.6883 52.5693 78.2216 52.448 77.7083 52.448C77.1856 52.448 76.7143 52.5693 76.2943 52.812C75.8836 53.0547 75.557 53.3953 75.3143 53.834C75.081 54.2633 74.9643 54.758 74.9643 55.318C74.9643 55.878 75.081 56.3773 75.3143 56.816C75.557 57.2547 75.8836 57.5953 76.2943 57.838C76.7143 58.0713 77.1856 58.188 77.7083 58.188ZM90.022 55.626H83.862C83.918 56.3913 84.212 57.012 84.744 57.488C85.276 57.9547 85.948 58.188 86.76 58.188C87.2173 58.188 87.6373 58.1087 88.02 57.95C88.4026 57.782 88.734 57.5393 89.014 57.222L89.574 57.866C89.2473 58.258 88.8366 58.5567 88.342 58.762C87.8566 58.9673 87.32 59.07 86.732 59.07C85.976 59.07 85.304 58.9113 84.716 58.594C84.1373 58.2673 83.6846 57.8193 83.358 57.25C83.0313 56.6807 82.868 56.0367 82.868 55.318C82.868 54.5993 83.022 53.9553 83.33 53.386C83.6473 52.8167 84.0766 52.3733 84.618 52.056C85.1686 51.7387 85.7846 51.58 86.466 51.58C87.1473 51.58 87.7586 51.7387 88.3 52.056C88.8413 52.3733 89.266 52.8167 89.574 53.386C89.882 53.946 90.036 54.59 90.036 55.318L90.022 55.626ZM86.466 52.434C85.7566 52.434 85.1593 52.6627 84.674 53.12C84.198 53.568 83.9273 54.156 83.862 54.884H89.084C89.0186 54.156 88.7433 53.568 88.258 53.12C87.782 52.6627 87.1846 52.434 86.466 52.434ZM92.2363 51.636H93.2303V54.898H97.8643V51.636H98.8583V59H97.8643V55.752H93.2303V59H92.2363V51.636ZM101.684 51.636H102.678V57.488L107.592 51.636H108.474V59H107.48V53.148L102.58 59H101.684V51.636ZM115.116 51.58C115.807 51.58 116.432 51.7387 116.992 52.056C117.552 52.364 117.991 52.8027 118.308 53.372C118.626 53.9413 118.784 54.59 118.784 55.318C118.784 56.0553 118.626 56.7087 118.308 57.278C117.991 57.8473 117.552 58.2907 116.992 58.608C116.442 58.916 115.816 59.07 115.116 59.07C114.519 59.07 113.978 58.9487 113.492 58.706C113.016 58.454 112.624 58.09 112.316 57.614V61.716H111.322V51.636H112.274V53.092C112.573 52.6067 112.965 52.2333 113.45 51.972C113.945 51.7107 114.5 51.58 115.116 51.58ZM115.046 58.188C115.56 58.188 116.026 58.0713 116.446 57.838C116.866 57.5953 117.193 57.2547 117.426 56.816C117.669 56.3773 117.79 55.878 117.79 55.318C117.79 54.758 117.669 54.2633 117.426 53.834C117.193 53.3953 116.866 53.0547 116.446 52.812C116.026 52.5693 115.56 52.448 115.046 52.448C114.524 52.448 114.052 52.5693 113.632 52.812C113.222 53.0547 112.895 53.3953 112.652 53.834C112.419 54.2633 112.302 54.758 112.302 55.318C112.302 55.878 112.419 56.3773 112.652 56.816C112.895 57.2547 113.222 57.5953 113.632 57.838C114.052 58.0713 114.524 58.188 115.046 58.188ZM123.958 59.07C123.249 59.07 122.609 58.9113 122.04 58.594C121.471 58.2673 121.023 57.8193 120.696 57.25C120.369 56.6807 120.206 56.0367 120.206 55.318C120.206 54.5993 120.369 53.9553 120.696 53.386C121.023 52.8167 121.471 52.3733 122.04 52.056C122.609 51.7387 123.249 51.58 123.958 51.58C124.667 51.58 125.307 51.7387 125.876 52.056C126.445 52.3733 126.889 52.8167 127.206 53.386C127.533 53.9553 127.696 54.5993 127.696 55.318C127.696 56.0367 127.533 56.6807 127.206 57.25C126.889 57.8193 126.445 58.2673 125.876 58.594C125.307 58.9113 124.667 59.07 123.958 59.07ZM123.958 58.188C124.481 58.188 124.947 58.0713 125.358 57.838C125.778 57.5953 126.105 57.2547 126.338 56.816C126.571 56.3773 126.688 55.878 126.688 55.318C126.688 54.758 126.571 54.2587 126.338 53.82C126.105 53.3813 125.778 53.0453 125.358 52.812C124.947 52.5693 124.481 52.448 123.958 52.448C123.435 52.448 122.964 52.5693 122.544 52.812C122.133 53.0453 121.807 53.3813 121.564 53.82C121.331 54.2587 121.214 54.758 121.214 55.318C121.214 55.878 121.331 56.3773 121.564 56.816C121.807 57.2547 122.133 57.5953 122.544 57.838C122.964 58.0713 123.435 58.188 123.958 58.188ZM134.51 55.192C135.509 55.4253 136.008 56.0273 136.008 56.998C136.008 57.642 135.77 58.1367 135.294 58.482C134.818 58.8273 134.109 59 133.166 59H129.82V51.636H133.068C133.908 51.636 134.566 51.7993 135.042 52.126C135.518 52.4527 135.756 52.9193 135.756 53.526C135.756 53.9273 135.644 54.2727 135.42 54.562C135.206 54.842 134.902 55.052 134.51 55.192ZM130.786 54.912H132.998C133.568 54.912 134.002 54.8047 134.3 54.59C134.608 54.3753 134.762 54.0627 134.762 53.652C134.762 53.2413 134.608 52.9333 134.3 52.728C134.002 52.5227 133.568 52.42 132.998 52.42H130.786V54.912ZM133.124 58.216C133.759 58.216 134.235 58.1133 134.552 57.908C134.87 57.7027 135.028 57.3807 135.028 56.942C135.028 56.5033 134.884 56.1813 134.594 55.976C134.305 55.7613 133.848 55.654 133.222 55.654H130.786V58.216H133.124ZM141.012 55.724H139.332V59H138.338V51.636H139.332V54.87H141.026L143.616 51.636H144.694L141.796 55.206L144.904 59H143.728L141.012 55.724ZM146.473 51.636H147.467V57.488L152.381 51.636H153.263V59H152.269V53.148L147.369 59H146.473V51.636Z" fill="white" fill-opacity="0.7"/>
</svg>
