<svg width="92" height="59" viewBox="0 0 92 59" fill="none" xmlns="http://www.w3.org/2000/svg">
<path d="M5.95 10.084C4.97933 10.084 4.09733 9.86933 3.304 9.44C2.52 9.00133 1.904 8.404 1.456 7.648C1.01733 6.892 0.798 6.04267 0.798 5.1C0.798 4.15733 1.01733 3.308 1.456 2.552C1.904 1.796 2.52 1.20333 3.304 0.773999C4.09733 0.335333 4.97933 0.116 5.95 0.116C6.92067 0.116 7.79333 0.330666 8.568 0.76C9.352 1.18933 9.968 1.78667 10.416 2.552C10.864 3.308 11.088 4.15733 11.088 5.1C11.088 6.04267 10.864 6.89667 10.416 7.662C9.968 8.418 9.352 9.01067 8.568 9.44C7.79333 9.86933 6.92067 10.084 5.95 10.084ZM5.95 9.16C6.72467 9.16 7.42467 8.98733 8.05 8.642C8.67533 8.28733 9.16533 7.802 9.52 7.186C9.87467 6.56067 10.052 5.86533 10.052 5.1C10.052 4.33467 9.87467 3.644 9.52 3.028C9.16533 2.40267 8.67533 1.91733 8.05 1.572C7.42467 1.21733 6.72467 1.04 5.95 1.04C5.17533 1.04 4.47067 1.21733 3.836 1.572C3.21067 1.91733 2.716 2.40267 2.352 3.028C1.99733 3.644 1.82 4.33467 1.82 5.1C1.82 5.86533 1.99733 6.56067 2.352 7.186C2.716 7.802 3.21067 8.28733 3.836 8.642C4.47067 8.98733 5.17533 9.16 5.95 9.16ZM16.9863 2.636H17.9803V5.898H22.6143V2.636H23.6083V10H22.6143V6.752H17.9803V10H16.9863V2.636ZM28.9675 2.58C29.9289 2.58 30.6662 2.82267 31.1795 3.308C31.6929 3.784 31.9495 4.49333 31.9495 5.436V10H30.9975V8.852C30.7735 9.23467 30.4422 9.53333 30.0035 9.748C29.5742 9.96267 29.0609 10.07 28.4635 10.07C27.6422 10.07 26.9889 9.874 26.5035 9.482C26.0182 9.09 25.7755 8.572 25.7755 7.928C25.7755 7.30267 25.9995 6.79867 26.4475 6.416C26.9049 6.03333 27.6282 5.842 28.6175 5.842H30.9555V5.394C30.9555 4.75933 30.7782 4.27867 30.4235 3.952C30.0689 3.616 29.5509 3.448 28.8695 3.448C28.4029 3.448 27.9549 3.52733 27.5255 3.686C27.0962 3.83533 26.7275 4.04533 26.4195 4.316L25.9715 3.574C26.3449 3.25667 26.7929 3.014 27.3155 2.846C27.8382 2.66867 28.3889 2.58 28.9675 2.58ZM28.6175 9.286C29.1775 9.286 29.6582 9.16 30.0595 8.908C30.4609 8.64667 30.7595 8.27333 30.9555 7.788V6.584H28.6455C27.3855 6.584 26.7555 7.02267 26.7555 7.9C26.7555 8.32933 26.9189 8.67 27.2455 8.922C27.5722 9.16467 28.0295 9.286 28.6175 9.286ZM37.6756 10.07C36.9476 10.07 36.2943 9.91133 35.7156 9.594C35.1463 9.27667 34.6983 8.83333 34.3716 8.264C34.045 7.68533 33.8816 7.03667 33.8816 6.318C33.8816 5.59933 34.045 4.95533 34.3716 4.386C34.6983 3.81667 35.1463 3.37333 35.7156 3.056C36.2943 2.73867 36.9476 2.58 37.6756 2.58C38.3103 2.58 38.875 2.706 39.3696 2.958C39.8736 3.20067 40.2703 3.56 40.5596 4.036L39.8176 4.54C39.575 4.176 39.267 3.90533 38.8936 3.728C38.5203 3.54133 38.1143 3.448 37.6756 3.448C37.1436 3.448 36.663 3.56933 36.2336 3.812C35.8136 4.04533 35.4823 4.38133 35.2396 4.82C35.0063 5.25867 34.8896 5.758 34.8896 6.318C34.8896 6.88733 35.0063 7.39133 35.2396 7.83C35.4823 8.25933 35.8136 8.59533 36.2336 8.838C36.663 9.07133 37.1436 9.188 37.6756 9.188C38.1143 9.188 38.5203 9.09933 38.8936 8.922C39.267 8.74467 39.575 8.474 39.8176 8.11L40.5596 8.614C40.2703 9.09 39.8736 9.454 39.3696 9.706C38.8656 9.94867 38.301 10.07 37.6756 10.07ZM7.882 25.096H2.66L2.674 34H1.652V24.2H7.882V25.096ZM11.9597 26.58C12.9211 26.58 13.6584 26.8227 14.1717 27.308C14.6851 27.784 14.9417 28.4933 14.9417 29.436V34H13.9897V32.852C13.7657 33.2347 13.4344 33.5333 12.9957 33.748C12.5664 33.9627 12.0531 34.07 11.4557 34.07C10.6344 34.07 9.98105 33.874 9.49572 33.482C9.01039 33.09 8.76772 32.572 8.76772 31.928C8.76772 31.3027 8.99172 30.7987 9.43972 30.416C9.89705 30.0333 10.6204 29.842 11.6097 29.842H13.9477V29.394C13.9477 28.7593 13.7704 28.2787 13.4157 27.952C13.0611 27.616 12.5431 27.448 11.8617 27.448C11.3951 27.448 10.9471 27.5273 10.5177 27.686C10.0884 27.8353 9.71972 28.0453 9.41172 28.316L8.96372 27.574C9.33705 27.2567 9.78505 27.014 10.3077 26.846C10.8304 26.6687 11.3811 26.58 11.9597 26.58ZM11.6097 33.286C12.1697 33.286 12.6504 33.16 13.0517 32.908C13.4531 32.6467 13.7517 32.2733 13.9477 31.788V30.584H11.6377C10.3777 30.584 9.74772 31.0227 9.74772 31.9C9.74772 32.3293 9.91105 32.67 10.2377 32.922C10.5644 33.1647 11.0217 33.286 11.6097 33.286ZM23.6078 26.636V34H22.6138V27.518H19.0858L18.9878 29.338C18.9132 30.8687 18.7358 32.0447 18.4558 32.866C18.1758 33.6873 17.6765 34.098 16.9578 34.098C16.7618 34.098 16.5238 34.0607 16.2438 33.986L16.3138 33.132C16.4818 33.1693 16.5985 33.188 16.6638 33.188C17.0465 33.188 17.3358 33.0107 17.5318 32.656C17.7278 32.3013 17.8585 31.8627 17.9238 31.34C17.9892 30.8173 18.0452 30.1267 18.0918 29.268L18.2178 26.636H23.6078ZM32.8735 30.626H26.7135C26.7695 31.3913 27.0635 32.012 27.5955 32.488C28.1275 32.9547 28.7995 33.188 29.6115 33.188C30.0689 33.188 30.4889 33.1087 30.8715 32.95C31.2542 32.782 31.5855 32.5393 31.8655 32.222L32.4255 32.866C32.0989 33.258 31.6882 33.5567 31.1935 33.762C30.7082 33.9673 30.1715 34.07 29.5835 34.07C28.8275 34.07 28.1555 33.9113 27.5675 33.594C26.9889 33.2673 26.5362 32.8193 26.2095 32.25C25.8829 31.6807 25.7195 31.0367 25.7195 30.318C25.7195 29.5993 25.8735 28.9553 26.1815 28.386C26.4989 27.8167 26.9282 27.3733 27.4695 27.056C28.0202 26.7387 28.6362 26.58 29.3175 26.58C29.9989 26.58 30.6102 26.7387 31.1515 27.056C31.6929 27.3733 32.1175 27.8167 32.4255 28.386C32.7335 28.946 32.8875 29.59 32.8875 30.318L32.8735 30.626ZM29.3175 27.434C28.6082 27.434 28.0109 27.6627 27.5255 28.12C27.0495 28.568 26.7789 29.156 26.7135 29.884H31.9355C31.8702 29.156 31.5949 28.568 31.1095 28.12C30.6335 27.6627 30.0362 27.434 29.3175 27.434ZM38.8818 26.58C39.5725 26.58 40.1978 26.7387 40.7578 27.056C41.3178 27.364 41.7565 27.8027 42.0738 28.372C42.3912 28.9413 42.5498 29.59 42.5498 30.318C42.5498 31.0553 42.3912 31.7087 42.0738 32.278C41.7565 32.8473 41.3178 33.2907 40.7578 33.608C40.2072 33.916 39.5818 34.07 38.8818 34.07C38.2845 34.07 37.7432 33.9487 37.2578 33.706C36.7818 33.454 36.3898 33.09 36.0818 32.614V36.716H35.0878V26.636H36.0398V28.092C36.3385 27.6067 36.7305 27.2333 37.2158 26.972C37.7105 26.7107 38.2658 26.58 38.8818 26.58ZM38.8118 33.188C39.3252 33.188 39.7918 33.0713 40.2118 32.838C40.6318 32.5953 40.9585 32.2547 41.1918 31.816C41.4345 31.3773 41.5558 30.878 41.5558 30.318C41.5558 29.758 41.4345 29.2633 41.1918 28.834C40.9585 28.3953 40.6318 28.0547 40.2118 27.812C39.7918 27.5693 39.3252 27.448 38.8118 27.448C38.2892 27.448 37.8178 27.5693 37.3978 27.812C36.9872 28.0547 36.6605 28.3953 36.4178 28.834C36.1845 29.2633 36.0678 29.758 36.0678 30.318C36.0678 30.878 36.1845 31.3773 36.4178 31.816C36.6605 32.2547 36.9872 32.5953 37.3978 32.838C37.8178 33.0713 38.2892 33.188 38.8118 33.188ZM51.1255 30.626H44.9655C45.0215 31.3913 45.3155 32.012 45.8475 32.488C46.3795 32.9547 47.0515 33.188 47.8635 33.188C48.3208 33.188 48.7408 33.1087 49.1235 32.95C49.5062 32.782 49.8375 32.5393 50.1175 32.222L50.6775 32.866C50.3508 33.258 49.9402 33.5567 49.4455 33.762C48.9602 33.9673 48.4235 34.07 47.8355 34.07C47.0795 34.07 46.4075 33.9113 45.8195 33.594C45.2408 33.2673 44.7882 32.8193 44.4615 32.25C44.1348 31.6807 43.9715 31.0367 43.9715 30.318C43.9715 29.5993 44.1255 28.9553 44.4335 28.386C44.7508 27.8167 45.1802 27.3733 45.7215 27.056C46.2722 26.7387 46.8882 26.58 47.5695 26.58C48.2508 26.58 48.8622 26.7387 49.4035 27.056C49.9448 27.3733 50.3695 27.8167 50.6775 28.386C50.9855 28.946 51.1395 29.59 51.1395 30.318L51.1255 30.626ZM47.5695 27.434C46.8602 27.434 46.2628 27.6627 45.7775 28.12C45.3015 28.568 45.0308 29.156 44.9655 29.884H50.1875C50.1222 29.156 49.8468 28.568 49.3615 28.12C48.8855 27.6627 48.2882 27.434 47.5695 27.434ZM58.7907 26.636V34H57.8807V31.564H55.5707H55.2907L53.5827 34H52.5047L54.3387 31.424C53.7694 31.2653 53.3307 30.9947 53.0227 30.612C52.7147 30.2293 52.5607 29.744 52.5607 29.156C52.5607 28.3347 52.8407 27.7093 53.4007 27.28C53.9607 26.8507 54.726 26.636 55.6967 26.636H58.7907ZM53.5687 29.184C53.5687 30.276 54.264 30.822 55.6547 30.822H57.8807V27.518H55.7247C54.2874 27.518 53.5687 28.0733 53.5687 29.184ZM7.924 55.382H2.464L1.288 58H0.21L4.69 48.2H5.712L10.192 58H9.1L7.924 55.382ZM7.546 54.542L5.194 49.278L2.842 54.542H7.546ZM15.2653 50.818C15.9466 50.818 16.5533 50.972 17.0853 51.28C17.6266 51.5787 18.0466 52.0033 18.3453 52.554C18.6439 53.0953 18.7933 53.716 18.7933 54.416C18.7933 55.1347 18.6346 55.774 18.3173 56.334C18.0093 56.8847 17.5753 57.314 17.0153 57.622C16.4553 57.93 15.8113 58.084 15.0833 58.084C13.8606 58.084 12.9133 57.6547 12.2413 56.796C11.5693 55.9373 11.2333 54.752 11.2333 53.24C11.2333 51.6627 11.5319 50.454 12.1292 49.614C12.7359 48.774 13.6786 48.2047 14.9573 47.906L18.2613 47.15L18.4293 48.06L15.3213 48.774C14.2666 49.0073 13.4919 49.4227 12.9973 50.02C12.5026 50.608 12.2319 51.4807 12.1853 52.638C12.4839 52.0687 12.8993 51.6253 13.4313 51.308C13.9633 50.9813 14.5746 50.818 15.2653 50.818ZM15.1113 57.258C15.6246 57.258 16.0819 57.1413 16.4833 56.908C16.8939 56.6653 17.2113 56.3293 17.4353 55.9C17.6686 55.4707 17.7853 54.9853 17.7853 54.444C17.7853 53.9027 17.6733 53.4267 17.4493 53.016C17.2253 52.6053 16.9079 52.288 16.4973 52.064C16.0959 51.8307 15.6339 51.714 15.1113 51.714C14.5886 51.714 14.1219 51.8307 13.7113 52.064C13.3099 52.288 12.9926 52.6053 12.7593 53.016C12.5353 53.4267 12.4233 53.9027 12.4233 54.444C12.4233 54.9853 12.5353 55.4707 12.7593 55.9C12.9926 56.3293 13.3146 56.6653 13.7253 56.908C14.1359 57.1413 14.5979 57.258 15.1113 57.258ZM23.9618 58.07C23.2524 58.07 22.6131 57.9113 22.0438 57.594C21.4744 57.2673 21.0264 56.8193 20.6998 56.25C20.3731 55.6807 20.2098 55.0367 20.2098 54.318C20.2098 53.5993 20.3731 52.9553 20.6998 52.386C21.0264 51.8167 21.4744 51.3733 22.0438 51.056C22.6131 50.7387 23.2524 50.58 23.9618 50.58C24.6711 50.58 25.3104 50.7387 25.8798 51.056C26.4491 51.3733 26.8924 51.8167 27.2098 52.386C27.5364 52.9553 27.6998 53.5993 27.6998 54.318C27.6998 55.0367 27.5364 55.6807 27.2098 56.25C26.8924 56.8193 26.4491 57.2673 25.8798 57.594C25.3104 57.9113 24.6711 58.07 23.9618 58.07ZM23.9618 57.188C24.4844 57.188 24.9511 57.0713 25.3618 56.838C25.7818 56.5953 26.1084 56.2547 26.3418 55.816C26.5751 55.3773 26.6918 54.878 26.6918 54.318C26.6918 53.758 26.5751 53.2587 26.3418 52.82C26.1084 52.3813 25.7818 52.0453 25.3618 51.812C24.9511 51.5693 24.4844 51.448 23.9618 51.448C23.4391 51.448 22.9678 51.5693 22.5478 51.812C22.1371 52.0453 21.8104 52.3813 21.5678 52.82C21.3344 53.2587 21.2178 53.758 21.2178 54.318C21.2178 54.878 21.3344 55.3773 21.5678 55.816C21.8104 56.2547 22.1371 56.5953 22.5478 56.838C22.9678 57.0713 23.4391 57.188 23.9618 57.188ZM29.8242 50.636H30.8182V53.898H35.4522V50.636H36.4462V58H35.4522V54.752H30.8182V58H29.8242V50.636ZM45.7114 54.626H39.5514C39.6074 55.3913 39.9014 56.012 40.4334 56.488C40.9654 56.9547 41.6374 57.188 42.4494 57.188C42.9068 57.188 43.3268 57.1087 43.7094 56.95C44.0921 56.782 44.4234 56.5393 44.7034 56.222L45.2634 56.866C44.9368 57.258 44.5261 57.5567 44.0314 57.762C43.5461 57.9673 43.0094 58.07 42.4214 58.07C41.6654 58.07 40.9934 57.9113 40.4054 57.594C39.8268 57.2673 39.3741 56.8193 39.0474 56.25C38.7208 55.6807 38.5574 55.0367 38.5574 54.318C38.5574 53.5993 38.7114 52.9553 39.0194 52.386C39.3368 51.8167 39.7661 51.3733 40.3074 51.056C40.8581 50.7387 41.4741 50.58 42.1554 50.58C42.8368 50.58 43.4481 50.7387 43.9894 51.056C44.5308 51.3733 44.9554 51.8167 45.2634 52.386C45.5714 52.946 45.7254 53.59 45.7254 54.318L45.7114 54.626ZM42.1554 51.434C41.4461 51.434 40.8488 51.6627 40.3634 52.12C39.8874 52.568 39.6168 53.156 39.5514 53.884H44.7734C44.7081 53.156 44.4328 52.568 43.9474 52.12C43.4714 51.6627 42.8741 51.434 42.1554 51.434ZM56.1577 50.636V58H55.2477V52.176L52.2657 57.104H51.8177L48.8357 52.162V58H47.9257V50.636H48.9337L52.0557 55.942L55.2337 50.636H56.1577ZM65.4263 54.626H59.2663C59.3223 55.3913 59.6163 56.012 60.1483 56.488C60.6803 56.9547 61.3523 57.188 62.1643 57.188C62.6216 57.188 63.0416 57.1087 63.4243 56.95C63.8069 56.782 64.1383 56.5393 64.4183 56.222L64.9783 56.866C64.6516 57.258 64.2409 57.5567 63.7463 57.762C63.2609 57.9673 62.7243 58.07 62.1363 58.07C61.3803 58.07 60.7083 57.9113 60.1203 57.594C59.5416 57.2673 59.0889 56.8193 58.7623 56.25C58.4356 55.6807 58.2723 55.0367 58.2723 54.318C58.2723 53.5993 58.4263 52.9553 58.7343 52.386C59.0516 51.8167 59.4809 51.3733 60.0223 51.056C60.5729 50.7387 61.1889 50.58 61.8703 50.58C62.5516 50.58 63.1629 50.7387 63.7043 51.056C64.2456 51.3733 64.6703 51.8167 64.9783 52.386C65.2863 52.946 65.4403 53.59 65.4403 54.318L65.4263 54.626ZM61.8703 51.434C61.1609 51.434 60.5636 51.6627 60.0783 52.12C59.6023 52.568 59.3316 53.156 59.2663 53.884H64.4883C64.4229 53.156 64.1476 52.568 63.6623 52.12C63.1863 51.6627 62.5889 51.434 61.8703 51.434ZM67.6406 50.636H68.6346V53.898H73.2686V50.636H74.2626V58H73.2686V54.752H68.6346V58H67.6406V50.636ZM82.2678 51.518H79.4818V58H78.4878V51.518H75.7018V50.636H82.2678V51.518ZM86.799 53.24C87.723 53.2493 88.4277 53.4547 88.913 53.856C89.3983 54.2573 89.641 54.836 89.641 55.592C89.641 56.376 89.3797 56.978 88.857 57.398C88.3343 57.818 87.5877 58.0233 86.617 58.014L83.705 58V50.636H84.699V53.212L86.799 53.24ZM90.873 50.636H91.867V58H90.873V50.636ZM86.561 57.258C87.2423 57.2673 87.7557 57.132 88.101 56.852C88.4557 56.5627 88.633 56.1427 88.633 55.592C88.633 55.0507 88.4603 54.6493 88.115 54.388C87.7697 54.1267 87.2517 53.9913 86.561 53.982L84.699 53.954V57.23L86.561 57.258Z" fill="white" fill-opacity="0.7"/>
</svg>
