<svg width="67" height="35" viewBox="0 0 67 35" fill="none" xmlns="http://www.w3.org/2000/svg">
<path d="M8.064 1.096H4.62V10H3.598V1.096H0.154V0.199999H8.064V1.096ZM13.2471 2.58C13.9377 2.58 14.5631 2.73867 15.1231 3.056C15.6831 3.364 16.1217 3.80267 16.4391 4.372C16.7564 4.94133 16.9151 5.59 16.9151 6.318C16.9151 7.05533 16.7564 7.70867 16.4391 8.278C16.1217 8.84733 15.6831 9.29067 15.1231 9.608C14.5724 9.916 13.9471 10.07 13.2471 10.07C12.6497 10.07 12.1084 9.94867 11.6231 9.706C11.1471 9.454 10.7551 9.09 10.4471 8.614V12.716H9.45306V2.636H10.4051V4.092C10.7037 3.60667 11.0957 3.23333 11.5811 2.972C12.0757 2.71067 12.6311 2.58 13.2471 2.58ZM13.1771 9.188C13.6904 9.188 14.1571 9.07133 14.5771 8.838C14.9971 8.59533 15.3237 8.25467 15.5571 7.816C15.7997 7.37733 15.9211 6.878 15.9211 6.318C15.9211 5.758 15.7997 5.26333 15.5571 4.834C15.3237 4.39533 14.9971 4.05467 14.5771 3.812C14.1571 3.56933 13.6904 3.448 13.1771 3.448C12.6544 3.448 12.1831 3.56933 11.7631 3.812C11.3524 4.05467 11.0257 4.39533 10.7831 4.834C10.5497 5.26333 10.4331 5.758 10.4331 6.318C10.4331 6.878 10.5497 7.37733 10.7831 7.816C11.0257 8.25467 11.3524 8.59533 11.7631 8.838C12.1831 9.07133 12.6544 9.188 13.1771 9.188ZM25.4907 6.626H19.3307C19.3867 7.39133 19.6807 8.012 20.2127 8.488C20.7447 8.95467 21.4167 9.188 22.2287 9.188C22.6861 9.188 23.1061 9.10867 23.4887 8.95C23.8714 8.782 24.2027 8.53933 24.4827 8.222L25.0427 8.866C24.7161 9.258 24.3054 9.55667 23.8107 9.762C23.3254 9.96733 22.7887 10.07 22.2007 10.07C21.4447 10.07 20.7727 9.91133 20.1847 9.594C19.6061 9.26733 19.1534 8.81933 18.8267 8.25C18.5001 7.68067 18.3367 7.03667 18.3367 6.318C18.3367 5.59933 18.4907 4.95533 18.7987 4.386C19.1161 3.81667 19.5454 3.37333 20.0867 3.056C20.6374 2.73867 21.2534 2.58 21.9347 2.58C22.6161 2.58 23.2274 2.73867 23.7687 3.056C24.3101 3.37333 24.7347 3.81667 25.0427 4.386C25.3507 4.946 25.5047 5.59 25.5047 6.318L25.4907 6.626ZM21.9347 3.434C21.2254 3.434 20.6281 3.66267 20.1427 4.12C19.6667 4.568 19.3961 5.156 19.3307 5.884H24.5527C24.4874 5.156 24.2121 4.568 23.7267 4.12C23.2507 3.66267 22.6534 3.434 21.9347 3.434ZM27.705 2.636H28.699V5.898H33.333V2.636H34.327V10H33.333V6.752H28.699V10H27.705V2.636ZM43.5923 6.626H37.4323C37.4883 7.39133 37.7823 8.012 38.3143 8.488C38.8463 8.95467 39.5183 9.188 40.3303 9.188C40.7876 9.188 41.2076 9.10867 41.5903 8.95C41.9729 8.782 42.3043 8.53933 42.5843 8.222L43.1443 8.866C42.8176 9.258 42.4069 9.55667 41.9123 9.762C41.4269 9.96733 40.8903 10.07 40.3023 10.07C39.5463 10.07 38.8743 9.91133 38.2863 9.594C37.7076 9.26733 37.2549 8.81933 36.9283 8.25C36.6016 7.68067 36.4383 7.03667 36.4383 6.318C36.4383 5.59933 36.5923 4.95533 36.9003 4.386C37.2176 3.81667 37.6469 3.37333 38.1883 3.056C38.7389 2.73867 39.3549 2.58 40.0363 2.58C40.7176 2.58 41.3289 2.73867 41.8703 3.056C42.4116 3.37333 42.8363 3.81667 43.1443 4.386C43.4523 4.946 43.6063 5.59 43.6063 6.318L43.5923 6.626ZM40.0363 3.434C39.3269 3.434 38.7296 3.66267 38.2443 4.12C37.7683 4.568 37.4976 5.156 37.4323 5.884H42.6543C42.5889 5.156 42.3136 4.568 41.8283 4.12C41.3523 3.66267 40.7549 3.434 40.0363 3.434ZM49.6006 2.58C50.2912 2.58 50.9166 2.73867 51.4766 3.056C52.0366 3.364 52.4752 3.80267 52.7926 4.372C53.1099 4.94133 53.2686 5.59 53.2686 6.318C53.2686 7.05533 53.1099 7.70867 52.7926 8.278C52.4752 8.84733 52.0366 9.29067 51.4766 9.608C50.9259 9.916 50.3006 10.07 49.6006 10.07C49.0032 10.07 48.4619 9.94867 47.9766 9.706C47.5006 9.454 47.1086 9.09 46.8006 8.614V12.716H45.8066V2.636H46.7586V4.092C47.0572 3.60667 47.4492 3.23333 47.9346 2.972C48.4292 2.71067 48.9846 2.58 49.6006 2.58ZM49.5306 9.188C50.0439 9.188 50.5106 9.07133 50.9306 8.838C51.3506 8.59533 51.6772 8.25467 51.9106 7.816C52.1532 7.37733 52.2746 6.878 52.2746 6.318C52.2746 5.758 52.1532 5.26333 51.9106 4.834C51.6772 4.39533 51.3506 4.05467 50.9306 3.812C50.5106 3.56933 50.0439 3.448 49.5306 3.448C49.0079 3.448 48.5366 3.56933 48.1166 3.812C47.7059 4.05467 47.3792 4.39533 47.1366 4.834C46.9032 5.26333 46.7866 5.758 46.7866 6.318C46.7866 6.878 46.9032 7.37733 47.1366 7.816C47.3792 8.25467 47.7059 8.59533 48.1166 8.838C48.5366 9.07133 49.0079 9.188 49.5306 9.188ZM58.4982 5.24C59.4222 5.24933 60.1269 5.45467 60.6122 5.856C61.0976 6.25733 61.3402 6.836 61.3402 7.592C61.3402 8.376 61.0789 8.978 60.5562 9.398C60.0336 9.818 59.2869 10.0233 58.3162 10.014L55.4042 10V2.636H56.3982V5.212L58.4982 5.24ZM62.5722 2.636H63.5662V10H62.5722V2.636ZM58.2602 9.258C58.9416 9.26733 59.4549 9.132 59.8002 8.852C60.1549 8.56267 60.3322 8.14267 60.3322 7.592C60.3322 7.05067 60.1596 6.64933 59.8142 6.388C59.4689 6.12667 58.9509 5.99133 58.2602 5.982L56.3982 5.954V9.23L58.2602 9.258ZM4.9 29.506H2.66V34H1.652V24.2H2.66V28.596H4.9L8.218 24.2H9.338L5.698 28.96L9.548 34H8.358L4.9 29.506ZM13.8583 34.07C13.1489 34.07 12.5096 33.9113 11.9403 33.594C11.3709 33.2673 10.9229 32.8193 10.5963 32.25C10.2696 31.6807 10.1063 31.0367 10.1063 30.318C10.1063 29.5993 10.2696 28.9553 10.5963 28.386C10.9229 27.8167 11.3709 27.3733 11.9403 27.056C12.5096 26.7387 13.1489 26.58 13.8583 26.58C14.5676 26.58 15.2069 26.7387 15.7763 27.056C16.3456 27.3733 16.7889 27.8167 17.1063 28.386C17.4329 28.9553 17.5963 29.5993 17.5963 30.318C17.5963 31.0367 17.4329 31.6807 17.1063 32.25C16.7889 32.8193 16.3456 33.2673 15.7763 33.594C15.2069 33.9113 14.5676 34.07 13.8583 34.07ZM13.8583 33.188C14.3809 33.188 14.8476 33.0713 15.2583 32.838C15.6783 32.5953 16.0049 32.2547 16.2383 31.816C16.4716 31.3773 16.5883 30.878 16.5883 30.318C16.5883 29.758 16.4716 29.2587 16.2383 28.82C16.0049 28.3813 15.6783 28.0453 15.2583 27.812C14.8476 27.5693 14.3809 27.448 13.8583 27.448C13.3356 27.448 12.8643 27.5693 12.4443 27.812C12.0336 28.0453 11.7069 28.3813 11.4642 28.82C11.2309 29.2587 11.1143 29.758 11.1143 30.318C11.1143 30.878 11.2309 31.3773 11.4642 31.816C11.7069 32.2547 12.0336 32.5953 12.4443 32.838C12.8643 33.0713 13.3356 33.188 13.8583 33.188ZM19.7206 26.636H20.7146V29.898H25.3486V26.636H26.3426V34H25.3486V30.752H20.7146V34H19.7206V26.636ZM34.3479 27.518H31.5619V34H30.5679V27.518H27.7819V26.636H34.3479V27.518ZM38.3191 26.58C39.2804 26.58 40.0178 26.8227 40.5311 27.308C41.0444 27.784 41.3011 28.4933 41.3011 29.436V34H40.3491V32.852C40.1251 33.2347 39.7938 33.5333 39.3551 33.748C38.9258 33.9627 38.4124 34.07 37.8151 34.07C36.9938 34.07 36.3404 33.874 35.8551 33.482C35.3698 33.09 35.1271 32.572 35.1271 31.928C35.1271 31.3027 35.3511 30.7987 35.7991 30.416C36.2564 30.0333 36.9798 29.842 37.9691 29.842H40.3071V29.394C40.3071 28.7593 40.1298 28.2787 39.7751 27.952C39.4204 27.616 38.9024 27.448 38.2211 27.448C37.7544 27.448 37.3064 27.5273 36.8771 27.686C36.4478 27.8353 36.0791 28.0453 35.7711 28.316L35.3231 27.574C35.6964 27.2567 36.1444 27.014 36.6671 26.846C37.1898 26.6687 37.7404 26.58 38.3191 26.58ZM37.9691 33.286C38.5291 33.286 39.0098 33.16 39.4111 32.908C39.8124 32.6467 40.1111 32.2733 40.3071 31.788V30.584H37.9971C36.7371 30.584 36.1071 31.0227 36.1071 31.9C36.1071 32.3293 36.2704 32.67 36.5971 32.922C36.9238 33.1647 37.3811 33.286 37.9691 33.286ZM46.6212 30.724H44.9412V34H43.9472V26.636H44.9412V29.87H46.6352L49.2252 26.636H50.3032L47.4052 30.206L50.5132 34H49.3372L46.6212 30.724ZM57.1116 27.518H54.3256V34H53.3316V27.518H50.5456V26.636H57.1116V27.518ZM61.6428 29.24C62.5668 29.2493 63.2714 29.4547 63.7568 29.856C64.2421 30.2573 64.4848 30.836 64.4848 31.592C64.4848 32.376 64.2234 32.978 63.7008 33.398C63.1781 33.818 62.4314 34.0233 61.4608 34.014L58.5488 34V26.636H59.5428V29.212L61.6428 29.24ZM65.7168 26.636H66.7108V34H65.7168V26.636ZM61.4048 33.258C62.0861 33.2673 62.5994 33.132 62.9448 32.852C63.2994 32.5627 63.4768 32.1427 63.4768 31.592C63.4768 31.0507 63.3041 30.6493 62.9588 30.388C62.6134 30.1267 62.0954 29.9913 61.4048 29.982L59.5428 29.954V33.23L61.4048 33.258Z" fill="white" fill-opacity="0.7"/>
</svg>
